<?xml version="1.0" standalone="no"?>
<!DOCTYPE svg PUBLIC "-//W3C//DTD SVG 20010904//EN"
 "http://www.w3.org/TR/2001/REC-SVG-20010904/DTD/svg10.dtd">
<svg version="1.0" xmlns="http://www.w3.org/2000/svg"
 width="256.000000pt" height="256.000000pt" viewBox="0 0 256.000000 256.000000"
 preserveAspectRatio="xMidYMid meet">
<metadata>
Created by potrace 1.11, written by Peter Selinger 2001-2013
</metadata>
<g transform="translate(0.000000,256.000000) scale(0.100000,-0.100000)"
fill="#000000" stroke="none">
<path d="M1125 2310 c-143 -22 -328 -98 -450 -185 -90 -63 -233 -219 -286
-311 -184 -315 -197 -678 -37 -999 58 -116 113 -189 220 -290 317 -302 778
-370 1173 -173 116 58 189 113 290 220 302 317 370 778 173 1173 -58 116 -113
189 -220 290 -136 130 -277 207 -466 256 -89 23 -302 33 -397 19z"/>
</g>
</svg>
